<svg xmlns="http://www.w3.org/2000/svg" xmlns:xlink="http://www.w3.org/1999/xlink" width="500" zoomAndPan="magnify" viewBox="0 0 375 374.999991" height="500" preserveAspectRatio="xMidYMid meet" version="1.0"><defs><g/><clipPath id="fd845e0a22"><path d="M 25.226562 160 L 91 160 L 91 216 L 25.226562 216 Z M 25.226562 160 " clip-rule="nonzero"/></clipPath><clipPath id="c514efced2"><path d="M 33 146.070312 L 80 146.070312 L 80 228.570312 L 33 228.570312 Z M 33 146.070312 " clip-rule="nonzero"/></clipPath></defs><rect x="-37.5" width="450" fill="#ffffff" y="-37.499999" height="449.999989" fill-opacity="1"/><rect x="-37.5" width="450" fill="#ffffff" y="-37.499999" height="449.999989" fill-opacity="1"/><path stroke-linecap="round" transform="matrix(0, 0.75, -0.75, 0, 102.107861, 142.277335)" fill="none" stroke-linejoin="miter" d="M 0.500011 0.497981 L 120.104186 0.497981 " stroke="#001d44" stroke-width="1" stroke-opacity="1" stroke-miterlimit="4"/><g clip-path="url(#fd845e0a22)"><path fill="#001d44" d="M 25.269531 187.714844 C 25.269531 203.058594 37.707031 215.496094 53.050781 215.496094 C 53.277344 215.496094 53.5 215.496094 53.722656 215.488281 L 53.050781 211.285156 C 38.835938 211.285156 27.3125 199.53125 27.3125 185.042969 C 27.300781 181.933594 27.828125 178.910156 28.882812 175.984375 C 29.941406 173.058594 31.46875 170.398438 33.464844 168.011719 C 32.164062 169.300781 31.003906 170.707031 29.980469 172.226562 C 28.960938 173.746094 28.097656 175.351562 27.394531 177.042969 C 26.691406 178.734375 26.160156 180.476562 25.804688 182.273438 C 25.445312 184.070312 25.269531 185.882812 25.269531 187.714844 Z M 76.476562 192.199219 C 80.507812 182.539062 71.367188 184.574219 69.316406 178.003906 C 67.015625 186.660156 68.988281 191.878906 75.230469 193.65625 C 74.101562 192.113281 73.351562 190.40625 72.972656 188.535156 C 74.351562 190.683594 75.519531 191.90625 76.476562 192.199219 Z M 89.96875 160.074219 C 92.160156 171.101562 89.277344 177.480469 81.320312 179.210938 C 82.855469 177.367188 83.933594 175.289062 84.554688 172.972656 C 82.660156 175.554688 81.097656 176.992188 79.878906 177.285156 C 75.585938 164.863281 86.871094 168.140625 89.96875 160.074219 Z M 60.570312 210.140625 C 71.121094 206.863281 78.792969 196.863281 78.792969 185.039062 C 78.800781 181.925781 78.277344 178.90625 77.21875 175.980469 C 76.160156 173.054688 74.636719 170.398438 72.640625 168.011719 C 73.941406 169.300781 75.101562 170.707031 76.125 172.226562 C 77.144531 173.746094 78.007812 175.351562 78.710938 177.042969 C 79.414062 178.734375 79.945312 180.476562 80.300781 182.273438 C 80.660156 184.070312 80.835938 185.882812 80.835938 187.714844 C 80.835938 200.394531 72.339844 211.089844 60.734375 214.421875 Z M 60.570312 210.140625 " fill-opacity="1" fill-rule="evenodd"/></g><g clip-path="url(#c514efced2)"><path fill="#000000" d="M 58.734375 210.636719 C 58.230469 203.4375 57.003906 194.929688 55.054688 185.121094 C 64.457031 184.15625 71.28125 181.253906 61.328125 176.914062 C 73.605469 185.433594 25.882812 186.941406 38.082031 177.027344 C 28.332031 182.234375 35.066406 184.851562 44.386719 185.375 C 43.582031 191.828125 43.613281 199.554688 44.488281 208.554688 C 46.195312 207.039062 48.390625 204.46875 51.066406 200.84375 L 47.210938 203.003906 C 46.714844 200.359375 47.640625 196.675781 49.988281 191.945312 C 52.027344 194.859375 53.902344 201.261719 55.609375 211.15625 C 55.835938 212.480469 56.0625 213.867188 56.285156 215.316406 C 56.890625 219.269531 57.476562 223.691406 58.039062 228.574219 C 58.820312 224.871094 59.125 220.304688 58.949219 214.878906 C 58.90625 213.523438 58.835938 212.113281 58.734375 210.648438 Z M 59.285156 161.605469 C 59.605469 161.605469 59.921875 161.574219 60.238281 161.511719 C 60.550781 161.449219 60.855469 161.359375 61.152344 161.234375 C 61.449219 161.113281 61.730469 160.960938 61.996094 160.785156 C 62.261719 160.605469 62.507812 160.40625 62.734375 160.179688 C 62.960938 159.953125 63.164062 159.707031 63.339844 159.441406 C 63.519531 159.171875 63.667969 158.890625 63.789062 158.597656 C 63.914062 158.300781 64.007812 157.996094 64.070312 157.683594 C 64.128906 157.367188 64.160156 157.050781 64.160156 156.730469 C 64.160156 156.410156 64.128906 156.09375 64.070312 155.777344 C 64.007812 155.464844 63.914062 155.160156 63.789062 154.863281 C 63.667969 154.570312 63.519531 154.289062 63.339844 154.023438 C 63.164062 153.753906 62.960938 153.507812 62.734375 153.28125 C 62.507812 153.054688 62.261719 152.855469 61.996094 152.675781 C 61.730469 152.5 61.449219 152.347656 61.152344 152.226562 C 60.855469 152.101562 60.550781 152.011719 60.238281 151.949219 C 59.921875 151.886719 59.605469 151.855469 59.285156 151.855469 C 58.964844 151.855469 58.648438 151.886719 58.335938 151.949219 C 58.019531 152.011719 57.714844 152.101562 57.421875 152.226562 C 57.125 152.347656 56.84375 152.5 56.578125 152.675781 C 56.3125 152.855469 56.066406 153.054688 55.839844 153.28125 C 55.613281 153.507812 55.410156 153.753906 55.230469 154.023438 C 55.054688 154.289062 54.902344 154.570312 54.78125 154.863281 C 54.660156 155.160156 54.566406 155.464844 54.503906 155.777344 C 54.441406 156.09375 54.410156 156.410156 54.410156 156.730469 C 54.410156 157.050781 54.441406 157.367188 54.503906 157.683594 C 54.566406 157.996094 54.660156 158.300781 54.78125 158.597656 C 54.902344 158.890625 55.054688 159.171875 55.230469 159.441406 C 55.410156 159.707031 55.613281 159.953125 55.839844 160.179688 C 56.066406 160.40625 56.3125 160.605469 56.578125 160.785156 C 56.84375 160.960938 57.125 161.113281 57.421875 161.234375 C 57.714844 161.359375 58.019531 161.449219 58.335938 161.511719 C 58.648438 161.574219 58.964844 161.605469 59.285156 161.605469 Z M 79.472656 155.367188 C 60.46875 169.449219 52.441406 178.195312 55.210938 181.289062 L 55.238281 181.285156 C 57.824219 180.570312 59.152344 179.132812 56.964844 176.871094 C 73.050781 184.117188 28.402344 186.058594 43.355469 176.761719 C 40.671875 178.882812 42.269531 180.40625 45.238281 181.199219 C 45.433594 177.410156 46.515625 171.6875 48.171875 165.859375 C 46.589844 160.878906 45.003906 154.28125 43.410156 146.070312 C 48.765625 165.171875 60.785156 168.269531 79.472656 155.367188 Z M 79.472656 155.367188 " fill-opacity="1" fill-rule="evenodd"/></g><g fill="#001d44" fill-opacity="1"><g transform="translate(117.756911, 190.055481)"><g><path d="M 28.796875 -23.585938 L 28.796875 0 L 23.050781 0 L 23.050781 -14.144531 L 17.773438 0 L 13.136719 0 L 7.828125 -14.179688 L 7.828125 0 L 2.082031 0 L 2.082031 -23.585938 L 8.871094 -23.585938 L 15.488281 -7.257812 L 22.042969 -23.585938 Z M 28.796875 -23.585938 "/></g></g></g><g fill="#001d44" fill-opacity="1"><g transform="translate(155.723598, 190.055481)"><g><path d="M 7.828125 -18.984375 L 7.828125 -14.210938 L 15.523438 -14.210938 L 15.523438 -9.777344 L 7.828125 -9.777344 L 7.828125 -4.601562 L 16.53125 -4.601562 L 16.53125 0 L 2.082031 0 L 2.082031 -23.585938 L 16.53125 -23.585938 L 16.53125 -18.984375 Z M 7.828125 -18.984375 "/></g></g></g><g fill="#001d44" fill-opacity="1"><g transform="translate(181.023954, 190.055481)"><g><path d="M 10.921875 -23.585938 C 13.40625 -23.585938 15.578125 -23.09375 17.4375 -22.109375 C 19.296875 -21.125 20.738281 -19.738281 21.757812 -17.960938 C 22.773438 -16.179688 23.285156 -14.125 23.285156 -11.792969 C 23.285156 -9.488281 22.773438 -7.4375 21.757812 -5.644531 C 20.738281 -3.851562 19.292969 -2.464844 17.421875 -1.476562 C 15.550781 -0.492188 13.382812 0 10.921875 0 L 2.082031 0 L 2.082031 -23.585938 Z M 10.550781 -4.972656 C 12.722656 -4.972656 14.414062 -5.566406 15.625 -6.753906 C 16.832031 -7.941406 17.4375 -9.621094 17.4375 -11.792969 C 17.4375 -13.964844 16.832031 -15.65625 15.625 -16.867188 C 14.414062 -18.078125 12.722656 -18.679688 10.550781 -18.679688 L 7.828125 -18.679688 L 7.828125 -4.972656 Z M 10.550781 -4.972656 "/></g></g></g><g fill="#001d44" fill-opacity="1"><g transform="translate(212.573482, 190.055481)"><g><path d="M 2.082031 -23.585938 L 7.828125 -23.585938 L 7.828125 0 L 2.082031 0 Z M 2.082031 -23.585938 "/></g></g></g><g fill="#001d44" fill-opacity="1"><g transform="translate(229.608801, 190.055481)"><g><path d="M 1.109375 -11.828125 C 1.109375 -14.15625 1.613281 -16.234375 2.621094 -18.058594 C 3.628906 -19.886719 5.035156 -21.308594 6.835938 -22.328125 C 8.640625 -23.347656 10.683594 -23.855469 12.96875 -23.855469 C 15.769531 -23.855469 18.167969 -23.117188 20.160156 -21.636719 C 22.152344 -20.160156 23.488281 -18.144531 24.160156 -15.589844 L 17.839844 -15.589844 C 17.371094 -16.574219 16.703125 -17.328125 15.84375 -17.839844 C 14.980469 -18.355469 14 -18.613281 12.902344 -18.613281 C 11.132812 -18.613281 9.699219 -18 8.601562 -16.765625 C 7.503906 -15.535156 6.957031 -13.886719 6.957031 -11.828125 C 6.957031 -9.765625 7.503906 -8.121094 8.601562 -6.886719 C 9.699219 -5.65625 11.132812 -5.039062 12.902344 -5.039062 C 14 -5.039062 14.980469 -5.296875 15.84375 -5.8125 C 16.703125 -6.328125 17.371094 -7.078125 17.839844 -8.0625 L 24.160156 -8.0625 C 23.488281 -5.511719 22.152344 -3.5 20.160156 -2.03125 C 18.167969 -0.566406 15.769531 0.167969 12.96875 0.167969 C 10.683594 0.167969 8.640625 -0.339844 6.835938 -1.359375 C 5.035156 -2.378906 3.628906 -3.796875 2.621094 -5.609375 C 1.613281 -7.425781 1.109375 -9.496094 1.109375 -11.828125 Z M 1.109375 -11.828125 "/></g></g></g><g fill="#001d44" fill-opacity="1"><g transform="translate(262.334243, 190.055481)"><g><path d="M 16.765625 -4.167969 L 7.964844 -4.167969 L 6.550781 0 L 0.539062 0 L 9.070312 -23.585938 L 15.726562 -23.585938 L 24.257812 0 L 18.175781 0 Z M 15.289062 -8.601562 L 12.363281 -17.238281 L 9.476562 -8.601562 Z M 15.289062 -8.601562 "/></g></g></g><g fill="#001d44" fill-opacity="1"><g transform="translate(294.219747, 190.055481)"><g><path d="M 14.113281 0 L 9.207031 -8.902344 L 7.828125 -8.902344 L 7.828125 0 L 2.082031 0 L 2.082031 -23.585938 L 11.726562 -23.585938 C 13.585938 -23.585938 15.171875 -23.261719 16.480469 -22.613281 C 17.792969 -21.964844 18.769531 -21.074219 19.421875 -19.941406 C 20.070312 -18.808594 20.394531 -17.550781 20.394531 -16.160156 C 20.394531 -14.59375 19.953125 -13.195312 19.066406 -11.960938 C 18.183594 -10.730469 16.878906 -9.855469 15.152344 -9.339844 L 20.597656 0 Z M 7.828125 -12.96875 L 11.390625 -12.96875 C 12.441406 -12.96875 13.234375 -13.226562 13.757812 -13.742188 C 14.285156 -14.257812 14.546875 -14.984375 14.546875 -15.925781 C 14.546875 -16.824219 14.285156 -17.527344 13.757812 -18.042969 C 13.234375 -18.558594 12.441406 -18.816406 11.390625 -18.816406 L 7.828125 -18.816406 Z M 7.828125 -12.96875 "/></g></g></g><g fill="#001d44" fill-opacity="1"><g transform="translate(323.249435, 190.055481)"><g><path d="M 7.828125 -18.984375 L 7.828125 -14.210938 L 15.523438 -14.210938 L 15.523438 -9.777344 L 7.828125 -9.777344 L 7.828125 -4.601562 L 16.53125 -4.601562 L 16.53125 0 L 2.082031 0 L 2.082031 -23.585938 L 16.53125 -23.585938 L 16.53125 -18.984375 Z M 7.828125 -18.984375 "/></g></g></g><g fill="#001d44" fill-opacity="1"><g transform="translate(117.756911, 205.148747)"><g><path d="M 3.445312 0.0820312 C 2.914062 0.0820312 2.4375 -0.0117188 2.015625 -0.203125 C 1.597656 -0.390625 1.265625 -0.652344 1.027344 -0.988281 C 0.789062 -1.324219 0.667969 -1.710938 0.660156 -2.148438 L 1.78125 -2.148438 C 1.820312 -1.773438 1.972656 -1.453125 2.246094 -1.195312 C 2.519531 -0.9375 2.921875 -0.808594 3.445312 -0.808594 C 3.945312 -0.808594 4.339844 -0.933594 4.628906 -1.183594 C 4.917969 -1.433594 5.0625 -1.757812 5.0625 -2.148438 C 5.0625 -2.457031 4.976562 -2.707031 4.808594 -2.902344 C 4.636719 -3.09375 4.425781 -3.238281 4.171875 -3.339844 C 3.917969 -3.441406 3.574219 -3.546875 3.144531 -3.664062 C 2.613281 -3.800781 2.1875 -3.941406 1.867188 -4.078125 C 1.546875 -4.21875 1.273438 -4.4375 1.046875 -4.734375 C 0.820312 -5.03125 0.703125 -5.429688 0.703125 -5.929688 C 0.703125 -6.367188 0.816406 -6.757812 1.039062 -7.097656 C 1.261719 -7.433594 1.578125 -7.699219 1.980469 -7.882812 C 2.386719 -8.066406 2.851562 -8.160156 3.375 -8.160156 C 4.128906 -8.160156 4.75 -7.972656 5.230469 -7.59375 C 5.710938 -7.214844 5.984375 -6.714844 6.042969 -6.089844 L 4.890625 -6.089844 C 4.851562 -6.398438 4.6875 -6.671875 4.402344 -6.90625 C 4.117188 -7.140625 3.742188 -7.257812 3.269531 -7.257812 C 2.832031 -7.257812 2.472656 -7.144531 2.195312 -6.917969 C 1.917969 -6.691406 1.78125 -6.371094 1.78125 -5.964844 C 1.78125 -5.671875 1.863281 -5.433594 2.027344 -5.246094 C 2.195312 -5.0625 2.398438 -4.921875 2.640625 -4.824219 C 2.882812 -4.730469 3.222656 -4.621094 3.664062 -4.496094 C 4.195312 -4.347656 4.621094 -4.203125 4.945312 -4.0625 C 5.269531 -3.917969 5.546875 -3.699219 5.777344 -3.402344 C 6.011719 -3.105469 6.125 -2.703125 6.125 -2.195312 C 6.125 -1.804688 6.019531 -1.433594 5.8125 -1.085938 C 5.605469 -0.738281 5.296875 -0.457031 4.890625 -0.242188 C 4.480469 -0.0273438 4 0.0820312 3.445312 0.0820312 Z M 3.445312 0.0820312 "/></g></g></g><g fill="#001d44" fill-opacity="1"><g transform="translate(124.539458, 205.148747)"><g><path d="M 0.496094 -4.035156 C 0.496094 -4.820312 0.675781 -5.527344 1.027344 -6.15625 C 1.382812 -6.78125 1.867188 -7.273438 2.480469 -7.628906 C 3.089844 -7.980469 3.773438 -8.160156 4.519531 -8.160156 C 5.398438 -8.160156 6.164062 -7.949219 6.820312 -7.523438 C 7.472656 -7.101562 7.953125 -6.5 8.253906 -5.722656 L 6.992188 -5.722656 C 6.769531 -6.207031 6.445312 -6.578125 6.027344 -6.84375 C 5.605469 -7.105469 5.105469 -7.234375 4.519531 -7.234375 C 3.957031 -7.234375 3.453125 -7.105469 3.003906 -6.84375 C 2.558594 -6.578125 2.207031 -6.207031 1.953125 -5.726562 C 1.699219 -5.246094 1.570312 -4.679688 1.570312 -4.035156 C 1.570312 -3.394531 1.699219 -2.832031 1.953125 -2.351562 C 2.207031 -1.871094 2.558594 -1.5 3.003906 -1.238281 C 3.453125 -0.976562 3.957031 -0.84375 4.519531 -0.84375 C 5.105469 -0.84375 5.605469 -0.972656 6.027344 -1.230469 C 6.445312 -1.488281 6.769531 -1.859375 6.992188 -2.347656 L 8.253906 -2.347656 C 7.953125 -1.574219 7.472656 -0.980469 6.820312 -0.558594 C 6.164062 -0.140625 5.398438 0.0703125 4.519531 0.0703125 C 3.773438 0.0703125 3.089844 -0.105469 2.480469 -0.457031 C 1.867188 -0.808594 1.382812 -1.292969 1.027344 -1.917969 C 0.675781 -2.542969 0.496094 -3.246094 0.496094 -4.035156 Z M 0.496094 -4.035156 "/></g></g></g><g fill="#001d44" fill-opacity="1"><g transform="translate(133.459612, 205.148747)"><g><path d="M 7.097656 -8.054688 L 7.097656 0 L 6.042969 0 L 6.042969 -3.652344 L 1.941406 -3.652344 L 1.941406 0 L 0.890625 0 L 0.890625 -8.054688 L 1.941406 -8.054688 L 1.941406 -4.519531 L 6.042969 -4.519531 L 6.042969 -8.054688 Z M 7.097656 -8.054688 "/></g></g></g><g fill="#001d44" fill-opacity="1"><g transform="translate(141.455392, 205.148747)"><g><path d="M 4.542969 0.0820312 C 3.792969 0.0820312 3.113281 -0.09375 2.496094 -0.445312 C 1.878906 -0.796875 1.394531 -1.285156 1.035156 -1.914062 C 0.675781 -2.539062 0.496094 -3.246094 0.496094 -4.035156 C 0.496094 -4.820312 0.675781 -5.527344 1.035156 -6.15625 C 1.394531 -6.78125 1.878906 -7.273438 2.496094 -7.621094 C 3.113281 -7.972656 3.792969 -8.148438 4.542969 -8.148438 C 5.296875 -8.148438 5.984375 -7.972656 6.597656 -7.621094 C 7.214844 -7.273438 7.699219 -6.785156 8.054688 -6.160156 C 8.410156 -5.535156 8.585938 -4.828125 8.585938 -4.035156 C 8.585938 -3.238281 8.410156 -2.53125 8.054688 -1.90625 C 7.699219 -1.28125 7.214844 -0.796875 6.597656 -0.445312 C 5.984375 -0.09375 5.296875 0.0820312 4.542969 0.0820312 Z M 4.542969 -0.832031 C 5.105469 -0.832031 5.609375 -0.964844 6.0625 -1.226562 C 6.511719 -1.488281 6.867188 -1.859375 7.125 -2.347656 C 7.382812 -2.832031 7.511719 -3.394531 7.511719 -4.035156 C 7.511719 -4.679688 7.382812 -5.246094 7.125 -5.726562 C 6.867188 -6.207031 6.515625 -6.578125 6.066406 -6.84375 C 5.621094 -7.105469 5.113281 -7.234375 4.542969 -7.234375 C 3.972656 -7.234375 3.464844 -7.105469 3.015625 -6.84375 C 2.570312 -6.578125 2.21875 -6.207031 1.960938 -5.726562 C 1.699219 -5.246094 1.570312 -4.679688 1.570312 -4.035156 C 1.570312 -3.394531 1.699219 -2.832031 1.960938 -2.347656 C 2.21875 -1.859375 2.570312 -1.488281 3.023438 -1.226562 C 3.472656 -0.964844 3.980469 -0.832031 4.542969 -0.832031 Z M 4.542969 -0.832031 "/></g></g></g><g fill="#001d44" fill-opacity="1"><g transform="translate(150.537308, 205.148747)"><g><path d="M 4.542969 0.0820312 C 3.792969 0.0820312 3.113281 -0.09375 2.496094 -0.445312 C 1.878906 -0.796875 1.394531 -1.285156 1.035156 -1.914062 C 0.675781 -2.539062 0.496094 -3.246094 0.496094 -4.035156 C 0.496094 -4.820312 0.675781 -5.527344 1.035156 -6.15625 C 1.394531 -6.78125 1.878906 -7.273438 2.496094 -7.621094 C 3.113281 -7.972656 3.792969 -8.148438 4.542969 -8.148438 C 5.296875 -8.148438 5.984375 -7.972656 6.597656 -7.621094 C 7.214844 -7.273438 7.699219 -6.785156 8.054688 -6.160156 C 8.410156 -5.535156 8.585938 -4.828125 8.585938 -4.035156 C 8.585938 -3.238281 8.410156 -2.53125 8.054688 -1.90625 C 7.699219 -1.28125 7.214844 -0.796875 6.597656 -0.445312 C 5.984375 -0.09375 5.296875 0.0820312 4.542969 0.0820312 Z M 4.542969 -0.832031 C 5.105469 -0.832031 5.609375 -0.964844 6.0625 -1.226562 C 6.511719 -1.488281 6.867188 -1.859375 7.125 -2.347656 C 7.382812 -2.832031 7.511719 -3.394531 7.511719 -4.035156 C 7.511719 -4.679688 7.382812 -5.246094 7.125 -5.726562 C 6.867188 -6.207031 6.515625 -6.578125 6.066406 -6.84375 C 5.621094 -7.105469 5.113281 -7.234375 4.542969 -7.234375 C 3.972656 -7.234375 3.464844 -7.105469 3.015625 -6.84375 C 2.570312 -6.578125 2.21875 -6.207031 1.960938 -5.726562 C 1.699219 -5.246094 1.570312 -4.679688 1.570312 -4.035156 C 1.570312 -3.394531 1.699219 -2.832031 1.960938 -2.347656 C 2.21875 -1.859375 2.570312 -1.488281 3.023438 -1.226562 C 3.472656 -0.964844 3.980469 -0.832031 4.542969 -0.832031 Z M 4.542969 -0.832031 "/></g></g></g><g fill="#001d44" fill-opacity="1"><g transform="translate(159.619225, 205.148747)"><g><path d="M 1.941406 -0.855469 L 4.761719 -0.855469 L 4.761719 0 L 0.890625 0 L 0.890625 -8.054688 L 1.941406 -8.054688 Z M 1.941406 -0.855469 "/></g></g></g><g fill="#001d44" fill-opacity="1"><g transform="translate(164.610817, 205.148747)"><g/></g></g><g fill="#001d44" fill-opacity="1"><g transform="translate(167.695892, 205.148747)"><g><path d="M 9.0625 -7.996094 L 9.0625 0 L 8.007812 0 L 8.007812 -5.964844 L 5.351562 0 L 4.613281 0 L 1.941406 -5.976562 L 1.941406 0 L 0.890625 0 L 0.890625 -7.996094 L 2.023438 -7.996094 L 4.980469 -1.386719 L 7.941406 -7.996094 Z M 9.0625 -7.996094 "/></g></g></g><g fill="#001d44" fill-opacity="1"><g transform="translate(177.6444, 205.148747)"><g><path d="M 1.941406 -7.199219 L 1.941406 -4.507812 L 4.878906 -4.507812 L 4.878906 -3.640625 L 1.941406 -3.640625 L 1.941406 -0.867188 L 5.222656 -0.867188 L 5.222656 0 L 0.890625 0 L 0.890625 -8.066406 L 5.222656 -8.066406 L 5.222656 -7.199219 Z M 1.941406 -7.199219 "/></g></g></g><g fill="#001d44" fill-opacity="1"><g transform="translate(183.571913, 205.148747)"><g><path d="M 3.398438 -8.054688 C 4.277344 -8.054688 5.039062 -7.890625 5.679688 -7.5625 C 6.324219 -7.238281 6.816406 -6.769531 7.160156 -6.160156 C 7.503906 -5.550781 7.675781 -4.835938 7.675781 -4.011719 C 7.675781 -3.1875 7.503906 -2.472656 7.160156 -1.867188 C 6.816406 -1.261719 6.324219 -0.800781 5.679688 -0.480469 C 5.039062 -0.160156 4.277344 0 3.398438 0 L 0.890625 0 L 0.890625 -8.054688 Z M 3.398438 -0.867188 C 4.4375 -0.867188 5.230469 -1.140625 5.777344 -1.691406 C 6.324219 -2.242188 6.597656 -3.015625 6.597656 -4.011719 C 6.597656 -5.011719 6.324219 -5.792969 5.773438 -6.355469 C 5.222656 -6.917969 4.429688 -7.199219 3.398438 -7.199219 L 1.941406 -7.199219 L 1.941406 -0.867188 Z M 3.398438 -0.867188 "/></g></g></g><g fill="#001d44" fill-opacity="1"><g transform="translate(191.741014, 205.148747)"><g><path d="M 0.890625 -8.054688 L 1.941406 -8.054688 L 1.941406 0 L 0.890625 0 Z M 0.890625 -8.054688 "/></g></g></g><g fill="#001d44" fill-opacity="1"><g transform="translate(194.58344, 205.148747)"><g><path d="M 0.496094 -4.035156 C 0.496094 -4.820312 0.675781 -5.527344 1.027344 -6.15625 C 1.382812 -6.78125 1.867188 -7.273438 2.480469 -7.628906 C 3.089844 -7.980469 3.773438 -8.160156 4.519531 -8.160156 C 5.398438 -8.160156 6.164062 -7.949219 6.820312 -7.523438 C 7.472656 -7.101562 7.953125 -6.5 8.253906 -5.722656 L 6.992188 -5.722656 C 6.769531 -6.207031 6.445312 -6.578125 6.027344 -6.84375 C 5.605469 -7.105469 5.105469 -7.234375 4.519531 -7.234375 C 3.957031 -7.234375 3.453125 -7.105469 3.003906 -6.84375 C 2.558594 -6.578125 2.207031 -6.207031 1.953125 -5.726562 C 1.699219 -5.246094 1.570312 -4.679688 1.570312 -4.035156 C 1.570312 -3.394531 1.699219 -2.832031 1.953125 -2.351562 C 2.207031 -1.871094 2.558594 -1.5 3.003906 -1.238281 C 3.453125 -0.976562 3.957031 -0.84375 4.519531 -0.84375 C 5.105469 -0.84375 5.605469 -0.972656 6.027344 -1.230469 C 6.445312 -1.488281 6.769531 -1.859375 6.992188 -2.347656 L 8.253906 -2.347656 C 7.953125 -1.574219 7.472656 -0.980469 6.820312 -0.558594 C 6.164062 -0.140625 5.398438 0.0703125 4.519531 0.0703125 C 3.773438 0.0703125 3.089844 -0.105469 2.480469 -0.457031 C 1.867188 -0.808594 1.382812 -1.292969 1.027344 -1.917969 C 0.675781 -2.542969 0.496094 -3.246094 0.496094 -4.035156 Z M 0.496094 -4.035156 "/></g></g></g><g fill="#001d44" fill-opacity="1"><g transform="translate(203.503594, 205.148747)"><g><path d="M 5.652344 -1.792969 L 2.136719 -1.792969 L 1.492188 0 L 0.382812 0 L 3.292969 -8.007812 L 4.507812 -8.007812 L 7.410156 0 L 6.300781 0 Z M 5.351562 -2.648438 L 3.894531 -6.714844 L 2.4375 -2.648438 Z M 5.351562 -2.648438 "/></g></g></g><g fill="#001d44" fill-opacity="1"><g transform="translate(211.29139, 205.148747)"><g><path d="M 1.941406 -0.855469 L 4.761719 -0.855469 L 4.761719 0 L 0.890625 0 L 0.890625 -8.054688 L 1.941406 -8.054688 Z M 1.941406 -0.855469 "/></g></g></g><g fill="#001d44" fill-opacity="1"><g transform="translate(216.282982, 205.148747)"><g/></g></g><g fill="#001d44" fill-opacity="1"><g transform="translate(219.368057, 205.148747)"><g><path d="M 3.445312 0.0820312 C 2.914062 0.0820312 2.4375 -0.0117188 2.015625 -0.203125 C 1.597656 -0.390625 1.265625 -0.652344 1.027344 -0.988281 C 0.789062 -1.324219 0.667969 -1.710938 0.660156 -2.148438 L 1.78125 -2.148438 C 1.820312 -1.773438 1.972656 -1.453125 2.246094 -1.195312 C 2.519531 -0.9375 2.921875 -0.808594 3.445312 -0.808594 C 3.945312 -0.808594 4.339844 -0.933594 4.628906 -1.183594 C 4.917969 -1.433594 5.0625 -1.757812 5.0625 -2.148438 C 5.0625 -2.457031 4.976562 -2.707031 4.808594 -2.902344 C 4.636719 -3.09375 4.425781 -3.238281 4.171875 -3.339844 C 3.917969 -3.441406 3.574219 -3.546875 3.144531 -3.664062 C 2.613281 -3.800781 2.1875 -3.941406 1.867188 -4.078125 C 1.546875 -4.21875 1.273438 -4.4375 1.046875 -4.734375 C 0.820312 -5.03125 0.703125 -5.429688 0.703125 -5.929688 C 0.703125 -6.367188 0.816406 -6.757812 1.039062 -7.097656 C 1.261719 -7.433594 1.578125 -7.699219 1.980469 -7.882812 C 2.386719 -8.066406 2.851562 -8.160156 3.375 -8.160156 C 4.128906 -8.160156 4.75 -7.972656 5.230469 -7.59375 C 5.710938 -7.214844 5.984375 -6.714844 6.042969 -6.089844 L 4.890625 -6.089844 C 4.851562 -6.398438 4.6875 -6.671875 4.402344 -6.90625 C 4.117188 -7.140625 3.742188 -7.257812 3.269531 -7.257812 C 2.832031 -7.257812 2.472656 -7.144531 2.195312 -6.917969 C 1.917969 -6.691406 1.78125 -6.371094 1.78125 -5.964844 C 1.78125 -5.671875 1.863281 -5.433594 2.027344 -5.246094 C 2.195312 -5.0625 2.398438 -4.921875 2.640625 -4.824219 C 2.882812 -4.730469 3.222656 -4.621094 3.664062 -4.496094 C 4.195312 -4.347656 4.621094 -4.203125 4.945312 -4.0625 C 5.269531 -3.917969 5.546875 -3.699219 5.777344 -3.402344 C 6.011719 -3.105469 6.125 -2.703125 6.125 -2.195312 C 6.125 -1.804688 6.019531 -1.433594 5.8125 -1.085938 C 5.605469 -0.738281 5.296875 -0.457031 4.890625 -0.242188 C 4.480469 -0.0273438 4 0.0820312 3.445312 0.0820312 Z M 3.445312 0.0820312 "/></g></g></g><g fill="#001d44" fill-opacity="1"><g transform="translate(226.150603, 205.148747)"><g><path d="M 5.847656 -8.054688 L 5.847656 -7.199219 L 3.652344 -7.199219 L 3.652344 0 L 2.601562 0 L 2.601562 -7.199219 L 0.394531 -7.199219 L 0.394531 -8.054688 Z M 5.847656 -8.054688 "/></g></g></g><g fill="#001d44" fill-opacity="1"><g transform="translate(232.401641, 205.148747)"><g><path d="M 5.652344 -1.792969 L 2.136719 -1.792969 L 1.492188 0 L 0.382812 0 L 3.292969 -8.007812 L 4.507812 -8.007812 L 7.410156 0 L 6.300781 0 Z M 5.351562 -2.648438 L 3.894531 -6.714844 L 2.4375 -2.648438 Z M 5.351562 -2.648438 "/></g></g></g><g fill="#001d44" fill-opacity="1"><g transform="translate(240.189436, 205.148747)"><g><path d="M 5.847656 -8.054688 L 5.847656 -7.199219 L 3.652344 -7.199219 L 3.652344 0 L 2.601562 0 L 2.601562 -7.199219 L 0.394531 -7.199219 L 0.394531 -8.054688 Z M 5.847656 -8.054688 "/></g></g></g><g fill="#001d44" fill-opacity="1"><g transform="translate(246.440473, 205.148747)"><g><path d="M 0.890625 -8.054688 L 1.941406 -8.054688 L 1.941406 0 L 0.890625 0 Z M 0.890625 -8.054688 "/></g></g></g><g fill="#001d44" fill-opacity="1"><g transform="translate(249.282899, 205.148747)"><g><path d="M 4.542969 0.0820312 C 3.792969 0.0820312 3.113281 -0.09375 2.496094 -0.445312 C 1.878906 -0.796875 1.394531 -1.285156 1.035156 -1.914062 C 0.675781 -2.539062 0.496094 -3.246094 0.496094 -4.035156 C 0.496094 -4.820312 0.675781 -5.527344 1.035156 -6.15625 C 1.394531 -6.78125 1.878906 -7.273438 2.496094 -7.621094 C 3.113281 -7.972656 3.792969 -8.148438 4.542969 -8.148438 C 5.296875 -8.148438 5.984375 -7.972656 6.597656 -7.621094 C 7.214844 -7.273438 7.699219 -6.785156 8.054688 -6.160156 C 8.410156 -5.535156 8.585938 -4.828125 8.585938 -4.035156 C 8.585938 -3.238281 8.410156 -2.53125 8.054688 -1.90625 C 7.699219 -1.28125 7.214844 -0.796875 6.597656 -0.445312 C 5.984375 -0.09375 5.296875 0.0820312 4.542969 0.0820312 Z M 4.542969 -0.832031 C 5.105469 -0.832031 5.609375 -0.964844 6.0625 -1.226562 C 6.511719 -1.488281 6.867188 -1.859375 7.125 -2.347656 C 7.382812 -2.832031 7.511719 -3.394531 7.511719 -4.035156 C 7.511719 -4.679688 7.382812 -5.246094 7.125 -5.726562 C 6.867188 -6.207031 6.515625 -6.578125 6.066406 -6.84375 C 5.621094 -7.105469 5.113281 -7.234375 4.542969 -7.234375 C 3.972656 -7.234375 3.464844 -7.105469 3.015625 -6.84375 C 2.570312 -6.578125 2.21875 -6.207031 1.960938 -5.726562 C 1.699219 -5.246094 1.570312 -4.679688 1.570312 -4.035156 C 1.570312 -3.394531 1.699219 -2.832031 1.960938 -2.347656 C 2.21875 -1.859375 2.570312 -1.488281 3.023438 -1.226562 C 3.472656 -0.964844 3.980469 -0.832031 4.542969 -0.832031 Z M 4.542969 -0.832031 "/></g></g></g><g fill="#001d44" fill-opacity="1"><g transform="translate(258.364816, 205.148747)"><g><path d="M 7.222656 0 L 6.171875 0 L 1.941406 -6.414062 L 1.941406 0 L 0.890625 0 L 0.890625 -8.066406 L 1.941406 -8.066406 L 6.171875 -1.664062 L 6.171875 -8.066406 L 7.222656 -8.066406 Z M 7.222656 0 "/></g></g></g><g fill="#001d44" fill-opacity="1"><g transform="translate(266.487694, 205.148747)"><g/></g></g><g fill="#001d44" fill-opacity="1"><g transform="translate(269.572769, 205.148747)"><g><path d="M 3.652344 0.105469 C 3.058594 0.105469 2.519531 -0.03125 2.039062 -0.300781 C 1.558594 -0.570312 1.179688 -0.953125 0.90625 -1.449219 C 0.632812 -1.949219 0.496094 -2.523438 0.496094 -3.179688 C 0.496094 -3.824219 0.636719 -4.398438 0.917969 -4.894531 C 1.199219 -5.390625 1.582031 -5.773438 2.070312 -6.039062 C 2.554688 -6.304688 3.097656 -6.4375 3.699219 -6.4375 C 4.300781 -6.4375 4.84375 -6.304688 5.328125 -6.039062 C 5.8125 -5.773438 6.195312 -5.394531 6.476562 -4.898438 C 6.757812 -4.40625 6.898438 -3.832031 6.898438 -3.179688 C 6.898438 -2.523438 6.753906 -1.949219 6.464844 -1.449219 C 6.175781 -0.953125 5.785156 -0.570312 5.292969 -0.300781 C 4.800781 -0.03125 4.253906 0.105469 3.652344 0.105469 Z M 3.652344 -0.820312 C 4.03125 -0.820312 4.382812 -0.910156 4.714844 -1.085938 C 5.046875 -1.261719 5.316406 -1.53125 5.519531 -1.882812 C 5.722656 -2.238281 5.824219 -2.667969 5.824219 -3.179688 C 5.824219 -3.6875 5.726562 -4.117188 5.523438 -4.472656 C 5.324219 -4.828125 5.0625 -5.089844 4.738281 -5.265625 C 4.414062 -5.4375 4.0625 -5.523438 3.6875 -5.523438 C 3.300781 -5.523438 2.949219 -5.4375 2.628906 -5.265625 C 2.308594 -5.089844 2.054688 -4.828125 1.859375 -4.472656 C 1.667969 -4.117188 1.570312 -3.6875 1.570312 -3.179688 C 1.570312 -2.660156 1.667969 -2.226562 1.855469 -1.871094 C 2.042969 -1.519531 2.296875 -1.253906 2.613281 -1.082031 C 2.929688 -0.90625 3.273438 -0.820312 3.652344 -0.820312 Z M 3.652344 -0.820312 "/></g></g></g><g fill="#001d44" fill-opacity="1"><g transform="translate(276.967712, 205.148747)"><g><path d="M 3.46875 -5.464844 L 2.136719 -5.464844 L 2.136719 0 L 1.085938 0 L 1.085938 -5.464844 L 0.265625 -5.464844 L 0.265625 -6.332031 L 1.085938 -6.332031 L 1.085938 -6.785156 C 1.085938 -7.492188 1.269531 -8.011719 1.636719 -8.339844 C 2 -8.667969 2.589844 -8.828125 3.398438 -8.828125 L 3.398438 -7.953125 C 2.9375 -7.953125 2.609375 -7.859375 2.421875 -7.679688 C 2.234375 -7.5 2.136719 -7.199219 2.136719 -6.785156 L 2.136719 -6.332031 L 3.46875 -6.332031 Z M 3.46875 -5.464844 "/></g></g></g><g fill="#001d44" fill-opacity="1"><g transform="translate(280.769176, 205.148747)"><g/></g></g><g fill="#001d44" fill-opacity="1"><g transform="translate(283.854251, 205.148747)"><g><path d="M 0.496094 -3.191406 C 0.496094 -3.835938 0.628906 -4.40625 0.890625 -4.894531 C 1.152344 -5.382812 1.511719 -5.761719 1.96875 -6.03125 C 2.429688 -6.300781 2.941406 -6.4375 3.511719 -6.4375 C 4.007812 -6.4375 4.464844 -6.324219 4.890625 -6.097656 C 5.3125 -5.871094 5.636719 -5.570312 5.859375 -5.199219 L 5.859375 -8.550781 L 6.921875 -8.550781 L 6.921875 0 L 5.859375 0 L 5.859375 -1.191406 C 5.652344 -0.8125 5.34375 -0.503906 4.933594 -0.261719 C 4.527344 -0.015625 4.050781 0.105469 3.5 0.105469 C 2.941406 0.105469 2.429688 -0.0351562 1.96875 -0.3125 C 1.511719 -0.589844 1.152344 -0.980469 0.890625 -1.480469 C 0.628906 -1.980469 0.496094 -2.550781 0.496094 -3.191406 Z M 5.859375 -3.179688 C 5.859375 -3.65625 5.761719 -4.070312 5.570312 -4.425781 C 5.378906 -4.78125 5.117188 -5.050781 4.789062 -5.242188 C 4.464844 -5.429688 4.101562 -5.523438 3.710938 -5.523438 C 3.316406 -5.523438 2.957031 -5.433594 2.636719 -5.246094 C 2.3125 -5.0625 2.054688 -4.792969 1.859375 -4.4375 C 1.667969 -4.082031 1.570312 -3.667969 1.570312 -3.191406 C 1.570312 -2.703125 1.667969 -2.28125 1.859375 -1.925781 C 2.054688 -1.566406 2.3125 -1.292969 2.636719 -1.105469 C 2.957031 -0.914062 3.316406 -0.820312 3.710938 -0.820312 C 4.101562 -0.820312 4.464844 -0.914062 4.789062 -1.105469 C 5.117188 -1.292969 5.378906 -1.566406 5.570312 -1.925781 C 5.761719 -2.28125 5.859375 -2.699219 5.859375 -3.179688 Z M 5.859375 -3.179688 "/></g></g></g><g fill="#001d44" fill-opacity="1"><g transform="translate(291.665164, 205.148747)"><g><path d="M 4.035156 -6.449219 C 4.511719 -6.449219 4.941406 -6.347656 5.328125 -6.144531 C 5.714844 -5.9375 6.015625 -5.632812 6.234375 -5.222656 C 6.453125 -4.816406 6.566406 -4.320312 6.566406 -3.734375 L 6.566406 0 L 5.523438 0 L 5.523438 -3.582031 C 5.523438 -4.214844 5.367188 -4.699219 5.050781 -5.035156 C 4.734375 -5.367188 4.304688 -5.535156 3.757812 -5.535156 C 3.203125 -5.535156 2.761719 -5.363281 2.433594 -5.015625 C 2.105469 -4.667969 1.941406 -4.164062 1.941406 -3.5 L 1.941406 0 L 0.890625 0 L 0.890625 -8.550781 L 1.941406 -8.550781 L 1.941406 -5.433594 C 2.148438 -5.753906 2.4375 -6.007812 2.800781 -6.183594 C 3.167969 -6.359375 3.578125 -6.449219 4.035156 -6.449219 Z M 4.035156 -6.449219 "/></g></g></g><g fill="#001d44" fill-opacity="1"><g transform="translate(299.060106, 205.148747)"><g><path d="M 0.589844 -0.84375 C 1.566406 -1.628906 2.335938 -2.273438 2.890625 -2.78125 C 3.445312 -3.285156 3.914062 -3.8125 4.292969 -4.363281 C 4.675781 -4.914062 4.867188 -5.457031 4.867188 -5.988281 C 4.867188 -6.488281 4.746094 -6.882812 4.5 -7.171875 C 4.257812 -7.460938 3.867188 -7.605469 3.328125 -7.605469 C 2.804688 -7.605469 2.398438 -7.441406 2.109375 -7.113281 C 1.820312 -6.785156 1.664062 -6.347656 1.640625 -5.800781 L 0.625 -5.800781 C 0.65625 -6.664062 0.917969 -7.332031 1.410156 -7.800781 C 1.902344 -8.269531 2.539062 -8.507812 3.316406 -8.507812 C 4.109375 -8.507812 4.742188 -8.285156 5.207031 -7.847656 C 5.671875 -7.410156 5.90625 -6.804688 5.90625 -6.03125 C 5.90625 -5.394531 5.714844 -4.769531 5.332031 -4.167969 C 4.953125 -3.5625 4.519531 -3.03125 4.035156 -2.570312 C 3.546875 -2.113281 2.929688 -1.578125 2.171875 -0.972656 L 6.148438 -0.972656 L 6.148438 -0.09375 L 0.589844 -0.09375 Z M 0.589844 -0.84375 "/></g></g></g><g fill="#001d44" fill-opacity="1"><g transform="translate(305.703996, 205.148747)"><g><path d="M 5.847656 -8.054688 L 5.847656 -7.199219 L 3.652344 -7.199219 L 3.652344 0 L 2.601562 0 L 2.601562 -7.199219 L 0.394531 -7.199219 L 0.394531 -8.054688 Z M 5.847656 -8.054688 "/></g></g></g><g fill="#001d44" fill-opacity="1"><g transform="translate(311.955034, 205.148747)"><g><path d="M 5.847656 -8.054688 L 5.847656 -7.199219 L 3.652344 -7.199219 L 3.652344 0 L 2.601562 0 L 2.601562 -7.199219 L 0.394531 -7.199219 L 0.394531 -8.054688 Z M 5.847656 -8.054688 "/></g></g></g></svg>