<svg width="43" height="39" viewBox="0 0 43 39" fill="none" xmlns="http://www.w3.org/2000/svg">
<path d="M26.0528 33.126C26.6603 32.7902 27.1019 32.2344 27.2805 31.5808C27.4591 30.9272 27.36 30.2294 27.005 29.6408L25.6665 27.4216C25.3115 26.8331 24.7297 26.402 24.0492 26.2232C23.3686 26.0445 22.6449 26.1327 22.0374 26.4684C17.4561 29.0003 14.7792 24.562 13.4407 22.3428C12.1022 20.1236 9.4253 15.6852 14.0066 13.1533C14.6141 12.8175 15.0557 12.2617 15.2343 11.6081C15.4129 10.9545 15.3138 10.2567 14.9588 9.66811L13.6203 7.44892C13.2653 6.86035 12.6835 6.42927 12.0029 6.25051C11.3224 6.07174 10.5987 6.15994 9.99119 6.4957C4.26458 9.66062 2.16708 13.7788 8.85942 24.8747C15.5518 35.9707 20.3262 36.2909 26.0528 33.126Z" stroke="white" stroke-width="2" stroke-linecap="round" stroke-linejoin="round"/>
<path d="M38.2437 23.9621C39.4605 19.4989 38.7825 14.7346 36.3588 10.716C33.935 6.69743 29.9638 3.75324 25.3175 2.53032M31.2305 22.12C31.593 20.7945 31.68 19.4104 31.4865 18.0469C31.293 16.6834 30.8228 15.3672 30.1028 14.1735C29.3828 12.9798 28.4272 11.9319 27.2903 11.0897C26.1535 10.2476 24.8579 9.62766 23.4774 9.26539M24.2549 20.2645C24.4982 19.3714 24.3625 18.4181 23.8775 17.6141C23.3925 16.81 22.598 16.2208 21.6684 15.9759" stroke="#159EEC" stroke-width="2" stroke-linecap="round" stroke-linejoin="round"/>
</svg>
