<svg width="192" height="27" viewBox="0 0 192 27" fill="none" xmlns="http://www.w3.org/2000/svg">
<path d="M4.17037 5.3V24.38L7.05037 25.46V26H0.210371V25.46L3.09037 24.38V1.88L0.930371 1.34V0.799998H5.43037C6.67837 0.799998 7.66237 1.064 8.38237 1.592C9.12637 2.096 9.76237 2.852 10.2904 3.86L18.1384 18.872L24.1504 3.86C24.5584 2.804 25.1104 2.036 25.8064 1.556C26.5024 1.052 27.5704 0.799998 29.0104 0.799998H32.7904V1.34L30.6304 1.88V24.92L32.7904 25.46V26H22.5304V25.46L24.6904 24.92V5.3L16.2304 26.36H15.1504L4.17037 5.3ZM36.0515 25.46L38.2115 24.92V1.88L36.0515 1.34V0.799998H55.3115V7.28H54.2315C53.7755 6.92 53.3795 6.464 53.0435 5.912C52.2755 4.616 51.8915 3.212 51.8915 1.7H44.1515V13.04H48.2915C48.4595 12.128 48.7715 11.276 49.2275 10.484C49.4195 10.124 49.6475 9.776 49.9115 9.44H50.9915V17.54H49.9115C49.6475 17.204 49.4195 16.856 49.2275 16.496C48.7715 15.704 48.4595 14.852 48.2915 13.94H44.1515V25.1H52.6115C52.6115 23.588 52.9955 22.184 53.7635 20.888C54.0995 20.336 54.4955 19.88 54.9515 19.52H56.0315V26H36.0515V25.46ZM59.2546 25.46L61.4146 24.92V1.88L59.2546 1.34V0.799998H68.4346C72.7306 0.799998 76.0186 1.904 78.2986 4.112C80.6026 6.32 81.7546 9.416 81.7546 13.4C81.7546 17.384 80.6026 20.48 78.2986 22.688C76.0186 24.896 72.7306 26 68.4346 26H59.2546V25.46ZM68.4346 25.1C70.6666 25.1 72.3946 24.2 73.6186 22.4C74.8426 20.576 75.4546 17.576 75.4546 13.4C75.4546 9.224 74.8426 6.236 73.6186 4.436C72.3946 2.612 70.6666 1.7 68.4346 1.7H67.3546V25.1H68.4346Z" fill="white"/>
<path d="M84.989 25.46L87.149 24.92V1.88L84.989 1.34V0.799998H94.169C98.465 0.799998 101.753 1.904 104.033 4.112C106.337 6.32 107.489 9.416 107.489 13.4C107.489 17.384 106.337 20.48 104.033 22.688C101.753 24.896 98.465 26 94.169 26H84.989V25.46ZM94.169 25.1C96.401 25.1 98.129 24.2 99.353 22.4C100.577 20.576 101.189 17.576 101.189 13.4C101.189 9.224 100.577 6.236 99.353 4.436C98.129 2.612 96.401 1.7 94.169 1.7H93.089V25.1H94.169ZM110.723 26V25.46L112.883 24.92V1.88L110.723 1.34V0.799998H120.983V1.34L118.823 1.88V24.92L120.983 25.46V26H110.723ZM136.635 26.54C132.795 26.54 129.795 25.4 127.635 23.12C125.475 20.84 124.395 17.6 124.395 13.4C124.395 10.64 124.863 8.276 125.799 6.308C126.759 4.316 128.091 2.816 129.795 1.808C131.523 0.775999 133.515 0.259999 135.771 0.259999C137.139 0.259999 138.519 0.655999 139.911 1.448C140.439 1.736 140.967 2.12 141.495 2.6C141.903 1.976 142.323 1.484 142.755 1.124C143.187 0.811998 143.427 0.643998 143.475 0.619998H144.375V7.46H142.935C142.623 6.308 142.155 5.264 141.531 4.328C140.955 3.416 140.235 2.66 139.371 2.06C138.531 1.46 137.559 1.16 136.455 1.16C134.799 1.16 133.419 2.12 132.315 4.04C131.235 5.96 130.695 9.08 130.695 13.4C130.695 17.792 131.283 20.936 132.459 22.832C133.659 24.704 135.291 25.64 137.355 25.64C138.483 25.64 139.551 25.328 140.559 24.704C141.591 24.056 142.419 23.204 143.043 22.148C143.691 21.092 144.015 19.976 144.015 18.8H144.915C144.915 20.168 144.543 21.452 143.799 22.652C143.079 23.828 142.083 24.776 140.811 25.496C139.563 26.192 138.171 26.54 136.635 26.54ZM144.766 25.46L147.646 24.38L157.546 0.439999H158.626L168.886 24.92L170.686 25.46V26H166.366C165.118 26 164.098 25.724 163.306 25.172C162.514 24.596 161.926 23.852 161.542 22.94L159.706 18.62H151.102L148.726 24.38L151.426 25.46V26H144.766V25.46ZM151.462 17.72H159.346L155.386 8.252L151.462 17.72ZM171.755 25.46L173.915 24.92V1.88L171.755 1.34V0.799998H182.015V1.34L179.855 1.88V25.1H187.595C187.595 23.588 187.979 22.184 188.747 20.888C189.083 20.336 189.479 19.88 189.935 19.52H191.015V26H171.755V25.46Z" fill="#159EEC"/>
</svg>
