<svg width="166" height="28" viewBox="0 0 166 28" fill="none" xmlns="http://www.w3.org/2000/svg">
<path d="M4.17037 5.925V25.005L7.05037 26.085V26.625H0.210371V26.085L3.09037 25.005V2.505L0.930371 1.965V1.425H5.43037C6.67837 1.425 7.66237 1.689 8.38237 2.217C9.12637 2.721 9.76237 3.477 10.2904 4.485L18.1384 19.497L24.1504 4.485C24.5584 3.429 25.1104 2.661 25.8064 2.181C26.5024 1.677 27.5704 1.425 29.0104 1.425H32.7904V1.965L30.6304 2.505V25.545L32.7904 26.085V26.625H22.5304V26.085L24.6904 25.545V5.925L16.2304 26.985H15.1504L4.17037 5.925ZM36.0515 26.085L38.2115 25.545V2.505L36.0515 1.965V1.425H55.3115V7.905H54.2315C53.7755 7.545 53.3795 7.089 53.0435 6.537C52.2755 5.241 51.8915 3.837 51.8915 2.325H44.1515V13.665H48.2915C48.4595 12.753 48.7715 11.901 49.2275 11.109C49.4195 10.749 49.6475 10.401 49.9115 10.065H50.9915V18.165H49.9115C49.6475 17.829 49.4195 17.481 49.2275 17.121C48.7715 16.329 48.4595 15.477 48.2915 14.565H44.1515V25.725H52.6115C52.6115 24.213 52.9955 22.809 53.7635 21.513C54.0995 20.961 54.4955 20.505 54.9515 20.145H56.0315V26.625H36.0515V26.085Z" fill="white"/>
<path d="M59.2546 26.085L61.4146 25.545V2.505L59.2546 1.965V1.425H68.4346C72.7306 1.425 76.0186 2.529 78.2986 4.737C80.6026 6.945 81.7546 10.041 81.7546 14.025C81.7546 18.009 80.6026 21.105 78.2986 23.313C76.0186 25.521 72.7306 26.625 68.4346 26.625H59.2546V26.085ZM68.4346 25.725C70.6666 25.725 72.3946 24.825 73.6186 23.025C74.8426 21.201 75.4546 18.201 75.4546 14.025C75.4546 9.849 74.8426 6.861 73.6186 5.061C72.3946 3.237 70.6666 2.325 68.4346 2.325H67.3546V25.725H68.4346ZM84.989 26.625V26.085L87.149 25.545V2.505L84.989 1.965V1.425H95.249V1.965L93.089 2.505V25.545L95.249 26.085V26.625H84.989ZM110.901 27.165C107.061 27.165 104.061 26.025 101.901 23.745C99.7405 21.465 98.6605 18.225 98.6605 14.025C98.6605 11.265 99.1285 8.901 100.065 6.933C101.025 4.941 102.357 3.441 104.061 2.433C105.789 1.401 107.781 0.884999 110.037 0.884999C111.405 0.884999 112.785 1.281 114.177 2.073C114.705 2.361 115.233 2.745 115.761 3.225C116.169 2.601 116.589 2.109 117.021 1.749C117.453 1.437 117.693 1.269 117.741 1.245H118.641V8.085H117.201C116.889 6.933 116.421 5.889 115.797 4.953C115.221 4.041 114.501 3.285 113.637 2.685C112.797 2.085 111.825 1.785 110.721 1.785C109.065 1.785 107.685 2.745 106.581 4.665C105.501 6.585 104.961 9.705 104.961 14.025C104.961 18.417 105.549 21.561 106.725 23.457C107.925 25.329 109.557 26.265 111.621 26.265C112.749 26.265 113.817 25.953 114.825 25.329C115.857 24.681 116.685 23.829 117.309 22.773C117.957 21.717 118.281 20.601 118.281 19.425H119.181C119.181 20.793 118.809 22.077 118.065 23.277C117.345 24.453 116.349 25.401 115.077 26.121C113.829 26.817 112.437 27.165 110.901 27.165ZM119.031 26.085L121.911 25.005L131.811 1.065H132.891L143.151 25.545L144.951 26.085V26.625H140.631C139.383 26.625 138.363 26.349 137.571 25.797C136.779 25.221 136.191 24.477 135.807 23.565L133.971 19.245H125.367L122.991 25.005L125.691 26.085V26.625H119.031V26.085ZM125.727 18.345H133.611L129.651 8.877L125.727 18.345ZM146.02 26.085L148.18 25.545V2.505L146.02 1.965V1.425H156.28V1.965L154.12 2.505V25.725H161.86C161.86 24.213 162.244 22.809 163.012 21.513C163.348 20.961 163.744 20.505 164.2 20.145H165.28V26.625H146.02V26.085Z" fill="#159EEC"/>
</svg>
